<svg xmlns="http://www.w3.org/2000/svg" viewBox="0 0 358.2 62.89"><defs><style>.cls-1{isolation:isolate;}.cls-1,.cls-5{font-size:57.76px;font-family:LeelawadeeUI-Bold, Leelawadee UI;font-weight:700;}.cls-1,.cls-2{fill:#5f277e;}.cls-3{fill:#f47721;}.cls-4{fill:#72226d;}.cls-5{fill:#f15a29;}</style></defs><g id="Layer_2" data-name="Layer 2"><g id="Layer_1-2" data-name="Layer 1"><text class="cls-1" transform="translate(0 49.1) scale(0.9 1)">Wii</text><path class="cls-2" d="M254.83,7.6A23.07,23.07,0,0,0,241.26,13l9.39,9a10.18,10.18,0,0,1,4.18-1.66V7.6Z"/><path class="cls-2" d="M233.69,30A20.92,20.92,0,0,0,239.29,43l9.39-9a9.29,9.29,0,0,1-1.74-4H233.69Z"/><path class="cls-2" d="M239.21,14.94a21,21,0,0,0-5.6,12.94h13.25a9.72,9.72,0,0,1,1.74-4Z"/><path class="cls-3" d="M271.25,13A22.85,22.85,0,0,0,257.6,7.6V20.3A10.13,10.13,0,0,1,261.78,22Z"/><path class="cls-4" d="M264.07,35.22l9.39,9a21,21,0,0,0,5.6-12.94H265.8A9.26,9.26,0,0,1,264.07,35.22Z"/><path class="cls-4" d="M279.14,27.88a20.84,20.84,0,0,0-5.6-12.94l-9.39,9a9.27,9.27,0,0,1,1.73,4Z"/><path class="cls-2" d="M241.18,45.48a23.22,23.22,0,0,0,13.58,5.44V38.06a10.22,10.22,0,0,1-4.19-1.66Z"/><path class="cls-2" d="M257.6,50.84a22.62,22.62,0,0,0,13.57-5.36l-9.39-9a10.13,10.13,0,0,1-4.18,1.66v12.7Z"/><text class="cls-5" transform="translate(79.06 49.1) scale(0.9 1)">DuuM</text><text class="cls-5" transform="translate(287.14 49.1) scale(0.9 1)">vie</text></g></g></svg>